<svg width="30" height="28" viewBox="0 0 30 28" fill="none" xmlns="http://www.w3.org/2000/svg">
<path d="M30 13.9675C30 6.34894 23.2843 0.172852 15 0.172852C6.71572 0.172852 0 6.34894 0 13.9675C0 20.8529 5.48528 26.5598 12.6563 27.5946V17.9551H8.84767V13.9675H12.6563V10.9284C12.6563 7.4711 14.8956 5.56141 18.322 5.56141C19.9631 5.56141 21.6797 5.83083 21.6797 5.83083V9.22561H19.7882C17.9249 9.22561 17.3438 10.289 17.3438 11.3799V13.9675H21.5039L20.8389 17.9551H17.3437V27.5946C24.5147 26.5598 30 20.8529 30 13.9675Z" fill="#1877F2"/>
<path d="M20.8389 17.9549L21.5039 13.9674H17.3437V11.3797C17.3437 10.2888 17.9248 9.22549 19.7882 9.22549H21.6797V5.8307C21.6797 5.8307 19.9631 5.56128 18.322 5.56128C14.8956 5.56128 12.6562 7.47097 12.6562 10.9283V13.9674H8.84766V17.9549H12.6562V27.5945C13.4316 27.7063 14.2152 27.7623 15 27.7621C15.7973 27.7621 16.5801 27.7047 17.3437 27.5945V17.9549H20.8389Z" fill="white"/>
</svg>
