<svg width="30" height="28" viewBox="0 0 30 28" fill="none" xmlns="http://www.w3.org/2000/svg">
<path d="M15.0049 0.172852C8.74253 0.172852 6.91103 0.178793 6.55502 0.205953C5.26988 0.304195 4.47018 0.490282 3.59896 0.889191C2.92755 1.1958 2.39804 1.55121 1.87544 2.04942C0.923698 2.958 0.346883 4.0758 0.138077 5.40451C0.0365572 6.04955 0.00702432 6.18111 0.00102545 9.47593C-0.00128181 10.5742 0.00102545 12.0196 0.00102545 13.9584C0.00102545 19.7128 0.00794723 21.3955 0.0379416 21.7222C0.141768 22.8723 0.337885 23.5958 0.753192 24.3873C1.54689 25.9023 3.06276 27.0396 4.84858 27.464C5.46692 27.6104 6.14987 27.691 7.02663 27.7292C7.3981 27.7441 11.1843 27.7547 14.9728 27.7547C18.7613 27.7547 22.5499 27.7505 22.9121 27.7335C23.9273 27.6896 24.5168 27.6168 25.1686 27.4619C26.0541 27.253 26.8793 26.869 27.5867 26.3365C28.294 25.8039 28.8665 25.1358 29.264 24.3788C29.6712 23.6065 29.8777 22.8553 29.9712 21.7653C29.9915 21.5277 30 17.7387 30 13.9548C30 10.1702 29.9908 6.3882 29.9705 6.15055C29.8759 5.04294 29.6694 4.29817 29.249 3.51096C28.9041 2.86655 28.521 2.38531 27.965 1.89326C26.9729 1.0216 25.7593 0.491131 24.3128 0.299314C23.6121 0.206165 23.4725 0.178581 19.8871 0.172852H15.0049Z" fill="url(#paint0_radial_1_238)"/>
<path d="M15.0049 0.172852C8.74253 0.172852 6.91103 0.178793 6.55502 0.205953C5.26988 0.304195 4.47018 0.490282 3.59896 0.889191C2.92755 1.1958 2.39804 1.55121 1.87544 2.04942C0.923698 2.958 0.346883 4.0758 0.138077 5.40451C0.0365572 6.04955 0.00702432 6.18111 0.00102545 9.47593C-0.00128181 10.5742 0.00102545 12.0196 0.00102545 13.9584C0.00102545 19.7128 0.00794723 21.3955 0.0379416 21.7222C0.141768 22.8723 0.337885 23.5958 0.753192 24.3873C1.54689 25.9023 3.06276 27.0396 4.84858 27.464C5.46692 27.6104 6.14987 27.691 7.02663 27.7292C7.3981 27.7441 11.1843 27.7547 14.9728 27.7547C18.7613 27.7547 22.5499 27.7505 22.9121 27.7335C23.9273 27.6896 24.5168 27.6168 25.1686 27.4619C26.0541 27.253 26.8793 26.869 27.5867 26.3365C28.294 25.8039 28.8665 25.1358 29.264 24.3788C29.6712 23.6065 29.8777 22.8553 29.9712 21.7653C29.9915 21.5277 30 17.7387 30 13.9548C30 10.1702 29.9908 6.3882 29.9705 6.15055C29.8759 5.04294 29.6694 4.29817 29.249 3.51096C28.9041 2.86655 28.521 2.38531 27.965 1.89326C26.9729 1.0216 25.7593 0.491131 24.3128 0.299314C23.6121 0.206165 23.4725 0.178581 19.8871 0.172852H15.0049Z" fill="url(#paint1_radial_1_238)"/>
<path d="M14.9984 3.77954C11.9906 3.77954 11.6132 3.79164 10.4319 3.84108C9.25285 3.89073 8.44808 4.06238 7.7439 4.31425C7.0155 4.57439 6.39762 4.92237 5.78204 5.4887C5.166 6.05481 4.78761 6.62304 4.50382 7.2927C4.22926 7.94051 4.04237 8.68082 3.9893 9.76467C3.9367 10.8511 3.92285 11.1984 3.92285 13.9645C3.92285 16.7305 3.93623 17.0766 3.98976 18.163C4.04398 19.2473 4.23064 19.9874 4.50428 20.635C4.78738 21.3048 5.16577 21.8731 5.78158 22.4392C6.39692 23.0057 7.01481 23.3545 7.74275 23.6147C8.44739 23.8666 9.25239 24.0382 10.4312 24.0879C11.6125 24.1373 11.9897 24.1494 14.9972 24.1494C18.0052 24.1494 18.3815 24.1373 19.5628 24.0879C20.7418 24.0382 21.5475 23.8666 22.2522 23.6147C22.9803 23.3545 23.5973 23.0057 24.2127 22.4392C24.8287 21.8731 25.2071 21.3048 25.4909 20.6352C25.7631 19.9874 25.95 19.247 26.0054 18.1632C26.0585 17.0768 26.0723 16.7305 26.0723 13.9645C26.0723 11.1984 26.0585 10.8513 26.0054 9.76488C25.95 8.68061 25.7631 7.94051 25.4909 7.29292C25.2071 6.62304 24.8287 6.05481 24.2127 5.4887C23.5966 4.92216 22.9806 4.57418 22.2515 4.31425C21.5455 4.06238 20.7402 3.89073 19.5612 3.84108C18.3799 3.79164 18.0038 3.77954 14.9952 3.77954H14.9984ZM14.0049 5.61495C14.2997 5.61453 14.6288 5.61495 14.9984 5.61495C17.9554 5.61495 18.3058 5.62471 19.4735 5.67351C20.5533 5.71892 21.1394 5.88485 21.5298 6.02426C22.0466 6.20886 22.4151 6.42953 22.8025 6.786C23.1901 7.14248 23.43 7.48197 23.6312 7.95727C23.7828 8.31586 23.9635 8.85482 24.0126 9.84785C24.0657 10.9215 24.0772 11.244 24.0772 13.9621C24.0772 16.6802 24.0657 17.0028 24.0126 18.0764C23.9632 19.0694 23.7828 19.6084 23.6312 19.967C23.4305 20.4423 23.1901 20.7807 22.8025 21.137C22.4148 21.4935 22.0468 21.7141 21.5298 21.8987C21.1398 22.0388 20.5533 22.2043 19.4735 22.2497C18.3061 22.2985 17.9554 22.3091 14.9984 22.3091C12.0412 22.3091 11.6907 22.2985 10.5232 22.2497C9.44343 22.2039 8.85739 22.0379 8.46677 21.8985C7.94994 21.7139 7.58078 21.4932 7.19316 21.1368C6.80554 20.7803 6.56559 20.4417 6.36439 19.9661C6.21281 19.6076 6.03215 19.0686 5.983 18.0756C5.92994 17.0019 5.91932 16.6794 5.91932 13.9596C5.91932 11.2398 5.92994 10.919 5.983 9.8453C6.03238 8.85227 6.21281 8.31332 6.36439 7.9543C6.56512 7.479 6.80554 7.13951 7.19316 6.78303C7.58078 6.42656 7.94994 6.20589 8.46677 6.02086C8.85715 5.88082 9.44343 5.71531 10.5232 5.66969C11.5449 5.62726 11.9408 5.61453 14.0049 5.6124V5.61495ZM20.91 7.30607C20.6472 7.30607 20.3902 7.37776 20.1717 7.51208C19.9531 7.64639 19.7828 7.8373 19.6822 8.06065C19.5816 8.284 19.5553 8.52976 19.6066 8.76686C19.6579 9.00395 19.7846 9.22172 19.9705 9.39263C20.1564 9.56354 20.3932 9.67991 20.6511 9.72702C20.9089 9.77413 21.1761 9.74987 21.4189 9.6573C21.6618 9.56473 21.8693 9.40801 22.0153 9.20697C22.1613 9.00592 22.2391 8.76958 22.239 8.52784C22.239 7.85309 21.6438 7.30565 20.91 7.30565V7.30607ZM14.9984 8.73408C11.8575 8.73408 9.31099 11.076 9.31099 13.9645C9.31099 16.853 11.8575 19.1938 14.9984 19.1938C18.1393 19.1938 20.6851 16.853 20.6851 13.9645C20.6851 11.076 18.139 8.73408 14.9982 8.73408H14.9984ZM14.9984 10.5695C17.0371 10.5695 18.69 12.0894 18.69 13.9645C18.69 15.8393 17.0371 17.3594 14.9984 17.3594C12.9595 17.3594 11.3068 15.8393 11.3068 13.9645C11.3068 12.0894 12.9595 10.5695 14.9984 10.5695Z" fill="white"/>
<defs>
<radialGradient id="paint0_radial_1_238" cx="0" cy="0" r="1" gradientUnits="userSpaceOnUse" gradientTransform="translate(7.96879 29.8791) rotate(-90) scale(27.3356 27.6533)">
<stop stop-color="#FFDD55"/>
<stop offset="0.1" stop-color="#FFDD55"/>
<stop offset="0.5" stop-color="#FF543E"/>
<stop offset="1" stop-color="#C837AB"/>
</radialGradient>
<radialGradient id="paint1_radial_1_238" cx="0" cy="0" r="1" gradientUnits="userSpaceOnUse" gradientTransform="translate(-5.02516 2.1598) rotate(77.7172) scale(12.2621 54.5916)">
<stop stop-color="#3771C8"/>
<stop offset="0.128" stop-color="#3771C8"/>
<stop offset="1" stop-color="#6600FF" stop-opacity="0"/>
</radialGradient>
</defs>
</svg>
