<svg width="30" height="28" viewBox="0 0 30 28" fill="none" xmlns="http://www.w3.org/2000/svg">
<path d="M25.5614 23.68H21.1164V17.2782C21.1164 15.7517 21.0867 13.7865 18.8045 13.7865C16.4893 13.7865 16.1351 15.4498 16.1351 17.1671V23.6796H11.69V10.5149H15.9573V12.314H16.017C16.4441 11.6425 17.0612 11.0901 17.8026 10.7156C18.544 10.3412 19.382 10.1586 20.2273 10.1875C24.7326 10.1875 25.5633 12.9127 25.5633 16.4581L25.5614 23.68ZM6.67454 8.71542C6.16436 8.7155 5.6656 8.57646 5.24135 8.31586C4.8171 8.05526 4.4864 7.68482 4.29108 7.25138C4.09576 6.81795 4.04458 6.34097 4.14402 5.88079C4.24347 5.4206 4.48906 4.99786 4.84975 4.66604C5.21044 4.33422 5.67002 4.1082 6.17038 4.01659C6.67074 3.92497 7.18941 3.97186 7.66079 4.15134C8.13217 4.33081 8.5351 4.6348 8.81861 5.02487C9.10213 5.41493 9.25351 5.87356 9.2536 6.34274C9.25366 6.65427 9.187 6.96276 9.05742 7.2506C8.92784 7.53843 8.73789 7.79998 8.4984 8.0203C8.25891 8.24063 7.97458 8.41541 7.66164 8.53468C7.3487 8.65395 7.01329 8.71536 6.67454 8.71542ZM8.89707 23.68H4.44738V10.5149H8.89707V23.68ZM27.7775 0.174731H2.21373C1.63351 0.168709 1.07442 0.374779 0.659323 0.747658C0.244226 1.12054 0.00708132 1.62972 0 2.16331V25.7704C0.00683896 26.3043 0.243832 26.8138 0.658915 27.187C1.074 27.5603 1.63322 27.7668 2.21373 27.7611H27.7775C28.3591 27.7678 28.9199 27.5619 29.3366 27.1887C29.7534 26.8154 29.9919 26.3053 30 25.7704V2.16161C29.9917 1.62696 29.753 1.1172 29.3362 0.744328C28.9195 0.371457 28.3588 0.165976 27.7775 0.173027" fill="#0A66C2"/>
</svg>
