<svg width="16" height="15" viewBox="0 0 16 15" fill="none" xmlns="http://www.w3.org/2000/svg">
<path d="M14.9539 13.8385H14.9541C14.9736 13.8385 14.9887 13.8309 14.9976 13.8226C14.9985 13.8217 14.9993 13.8209 15 13.8202V11.1994C15 10.9783 14.814 10.7509 14.5288 10.7286L14.5678 10.2301L14.5292 10.7286C13.2798 10.6321 12.0874 10.3498 10.9822 9.91437C10.6767 9.79422 10.377 9.88834 10.2411 10.0692L10.2403 10.0704C9.99823 10.3906 9.74951 10.7446 9.56007 11.0205C9.46565 11.158 9.38658 11.2751 9.33122 11.3578C9.30354 11.3991 9.28182 11.4318 9.26709 11.454L9.25038 11.4792L9.24621 11.4855L9.24522 11.487L9.245 11.4874L9.24496 11.4874L9.24496 11.4874L8.99941 11.8607L8.60096 11.6585C6.23699 10.4588 4.27381 8.66787 2.95943 6.48341L2.69219 6.03927L3.14565 5.78821L3.14565 5.7882L3.14566 5.7882L3.14572 5.78816L3.1461 5.78795L3.14778 5.78702L3.15476 5.78314L3.18255 5.76766C3.20697 5.75402 3.24286 5.73392 3.28824 5.70833C3.37904 5.65713 3.5077 5.58403 3.65857 5.49677C3.96122 5.32172 4.34947 5.09187 4.70002 4.86834L4.7007 4.8679C4.90198 4.74001 4.96768 4.50676 4.86317 4.28212L14.9539 13.8385ZM14.9539 13.8385C6.94865 13.8424 0.505099 7.86428 0.500003 0.602033C0.510292 0.59317 0.52934 0.583984 0.553572 0.583984H3.41332C3.75277 0.583984 3.95343 0.808885 3.96934 0.985208L3.96938 0.985723M14.9539 13.8385L3.96938 0.985723M3.96938 0.985723C4.07559 2.14915 4.386 3.25674 4.86316 4.2821L3.96938 0.985723Z" fill="#C59B4F" stroke="#B19657"/>
</svg>
