<svg width="21" height="18" viewBox="0 0 21 18" fill="none" xmlns="http://www.w3.org/2000/svg">
<path d="M0.500003 0.626526V0.626843C0.494225 9.74239 9.28208 17.2968 20.2603 17.2918H20.2605C20.3453 17.2918 20.4138 17.2612 20.4558 17.2249C20.498 17.1885 20.5 17.161 20.5 17.1564V13.8738C20.5 13.565 20.2105 13.1994 19.7013 13.1627L0.500003 0.626526ZM0.500003 0.626526C0.500003 0.625215 0.500016 0.621053 0.504562 0.612222C0.509589 0.602459 0.520637 0.586523 0.542118 0.568673C0.586591 0.531718 0.660271 0.5 0.750003 0.5H4.6245C5.19082 0.5 5.52834 0.846515 5.55488 1.11752L5.55494 1.11808M0.500003 0.626526L5.55494 1.11808M13.721 12.4043L13.7201 12.4054C13.3903 12.8073 13.052 13.2509 12.7948 13.596C12.6666 13.7681 12.5591 13.9147 12.4839 14.0182C12.4463 14.07 12.4167 14.1109 12.3967 14.1387L12.3739 14.1704L12.3682 14.1784L12.3668 14.1803L12.3665 14.1808L12.3664 14.1809L12.3664 14.1809L12.1246 14.5195L11.7477 14.3433C8.57632 12.8605 5.9389 10.6454 4.17138 7.93915L3.86706 7.4732L4.3628 7.22033L4.36281 7.22033L4.36282 7.22032L4.36294 7.22027L4.36348 7.21999L4.36583 7.21879L4.37543 7.21387L4.41339 7.19439C4.4467 7.17725 4.49555 7.15205 4.55729 7.11997C4.68079 7.05581 4.85571 6.96425 5.06082 6.85497C5.47193 6.63591 6.00057 6.34761 6.47874 6.06671L6.47941 6.06632C6.83035 5.86089 6.91288 5.51131 6.75671 5.20207L13.721 12.4043ZM13.721 12.4043C13.9563 12.1157 14.4643 11.9807 14.9569 12.1592M13.721 12.4043L14.9569 12.1592M5.55494 1.11808C5.69787 2.56054 6.11553 3.93276 6.7567 5.20204L5.55494 1.11808ZM14.9569 12.1592C16.4355 12.6959 18.0304 13.0437 19.7011 13.1627L14.9569 12.1592Z" stroke="#F8CC42"/>
</svg>
