<svg width="34" height="25" viewBox="0 0 34 25" fill="none" xmlns="http://www.w3.org/2000/svg">
<path d="M33.0369 0.244132L32.2039 5.39998C30.5378 5.27938 29.1841 5.52059 28.1428 6.12361C27.1015 6.69648 26.3726 7.54072 25.9561 8.65631C25.5742 9.74175 25.5048 11.0081 25.7478 12.4554H33.0369V24.757H18.8752V12.4554C18.8752 8.11359 20.038 4.82711 22.3636 2.59593C24.6891 0.334586 28.2469 -0.449345 33.0369 0.244132ZM14.1893 0.244132L13.3563 5.39998C11.6902 5.27938 10.3365 5.52059 9.29518 6.12361C8.25387 6.69648 7.52496 7.54072 7.10843 8.65631C6.72662 9.74175 6.6572 11.0081 6.90017 12.4554H14.1893V24.757H0.0275574V12.4554C0.0275574 8.11359 1.19035 4.82711 3.51593 2.59593C5.84151 0.334586 9.3993 -0.449345 14.1893 0.244132Z" fill="#F0D77B"/>
</svg>
