<svg width="19" height="20" viewBox="0 0 19 20" fill="none" xmlns="http://www.w3.org/2000/svg">
<path d="M8.54351 0.978317C8.81598 0.00412297 10.1971 0.00412369 10.4696 0.978317L11.8979 6.08512C12.0187 6.51709 12.4124 6.81577 12.861 6.81577H17.767C18.6992 6.81577 19.1244 7.9787 18.412 8.57995L14.1977 12.137C13.8985 12.3895 13.7742 12.7934 13.8796 13.1705L15.4269 18.7026C15.6922 19.651 14.5714 20.3713 13.8189 19.7362L10.1515 16.6408C9.77902 16.3264 9.23407 16.3264 8.86155 16.6408L5.19419 19.7362C4.44167 20.3713 3.32091 19.651 3.58616 18.7026L5.13345 13.1705C5.23891 12.7934 5.11461 12.3895 4.8154 12.137L0.601065 8.57995C-0.111292 7.9787 0.313884 6.81577 1.24606 6.81577H6.15213C6.60068 6.81577 6.99436 6.51709 7.11517 6.08512L8.54351 0.978317Z" fill="url(#paint0_linear_1_81)"/>
<defs>
<linearGradient id="paint0_linear_1_81" x1="9.49363" y1="-2.4649" x2="9.49363" y2="39.6192" gradientUnits="userSpaceOnUse">
<stop stop-color="#FFE998"/>
<stop offset="1" stop-color="#57370D"/>
</linearGradient>
</defs>
</svg>
